<svg width="17" height="17" viewBox="0 0 17 17" fill="none" xmlns="http://www.w3.org/2000/svg">
<path fill-rule="evenodd" clip-rule="evenodd" d="M7.30786 0.494199L6.02719 1.77373C5.92378 1.87718 5.7836 1.93546 5.63733 1.9358H3.62226C2.69066 1.9358 1.93586 2.6906 1.93586 3.6222V5.63727C1.93586 5.7846 1.87693 5.924 1.77379 6.02827L0.493127 7.3078C0.176987 7.62404 -0.000610352 8.0529 -0.000610352 8.50007C-0.000610352 8.94723 0.176987 9.37609 0.493127 9.69233L1.77379 10.973C1.87725 11.0764 1.93552 11.2166 1.93586 11.3629V13.3779C1.93586 14.3095 2.69066 15.0643 3.62226 15.0643H5.63733C5.78466 15.0643 5.92406 15.1233 6.02833 15.2264L7.30786 16.5071C7.6241 16.8232 8.05296 17.0008 8.50013 17.0008C8.94729 17.0008 9.37615 16.8232 9.69239 16.5071L10.9731 15.2264C11.0765 15.1229 11.2167 15.0647 11.3629 15.0643H13.378C14.3096 15.0643 15.0644 14.3095 15.0644 13.3779V11.3629C15.0644 11.2155 15.1233 11.0761 15.2265 10.9719L16.5071 9.69233C16.8233 9.37609 17.0009 8.94723 17.0009 8.50007C17.0009 8.0529 16.8233 7.62404 16.5071 7.3078L15.2265 6.02713C15.123 5.92372 15.0647 5.78354 15.0644 5.63727V3.6222C15.0644 2.6906 14.3096 1.9358 13.378 1.9358H11.3629C11.2163 1.93576 11.0756 1.87746 10.9719 1.77373L9.69239 0.493066C9.37615 0.176925 8.94729 -0.000671387 8.50013 -0.000671387C8.05296 -0.000671387 7.6241 0.176925 7.30786 0.493066V0.494199ZM5.26559 10.9322L10.9323 5.26553L11.7347 6.06793L6.06799 11.7346L5.26559 10.9322ZM5.66679 5.66673V6.80007H6.80013V5.66673H5.66679ZM10.2001 11.3334H11.3335V10.2001H10.2001V11.3334Z" fill="#374F82"/>
</svg>
