<svg width="24" height="24" viewBox="0 0 24 24" fill="none" xmlns="http://www.w3.org/2000/svg">
<path d="M12.6461 3.27359C12.4319 3.25778 12.2172 3.24986 12.0024 3.24984V2C12.2481 2.00012 12.4936 2.00929 12.7386 2.0275L12.6461 3.27359ZM15.1508 3.83602C14.7502 3.68142 14.3387 3.55652 13.9197 3.46232L14.1934 2.24247C14.6721 2.34996 15.1433 2.49244 15.6007 2.66992L15.1508 3.83602ZM16.8631 4.72341C16.6844 4.60424 16.5014 4.49167 16.3144 4.38595L16.9306 3.29859C17.3579 3.54073 17.7669 3.81393 18.1542 4.11599L17.3855 5.10211C17.2161 4.96992 17.0418 4.84401 16.8631 4.72466V4.72341ZM19.1553 6.96063C18.9081 6.60939 18.6353 6.27687 18.3391 5.96575L19.244 5.10336C19.5815 5.45957 19.894 5.84077 20.1777 6.24072L19.1553 6.96063ZM20.0852 8.65042C20.0031 8.45227 19.9139 8.25716 19.8177 8.06549L20.9338 7.50306C21.1545 7.94186 21.3425 8.39638 21.4963 8.86289L20.3089 9.25409C20.2417 9.0502 20.1671 8.84884 20.0852 8.65042ZM20.7476 11.7838C20.7375 11.3543 20.6957 10.9261 20.6226 10.5027L21.8537 10.2902C21.9374 10.7727 21.9862 11.2626 21.9987 11.7525L20.7488 11.7838H20.7476ZM20.5839 13.706C20.6251 13.4936 20.6589 13.2823 20.6851 13.0686L21.9262 13.2223C21.8662 13.71 21.7701 14.1925 21.6387 14.6659L20.4339 14.3322C20.4914 14.126 20.5414 13.9173 20.5839 13.706ZM19.394 16.6794C19.624 16.317 19.8265 15.937 20.0014 15.5446L21.1438 16.0507C20.9438 16.5007 20.7126 16.9331 20.4501 17.3481L19.394 16.6794ZM18.1892 18.1855C18.3416 18.033 18.4879 17.8755 18.6266 17.713L19.574 18.5292C19.4136 18.7152 19.2464 18.8953 19.0728 19.0691L18.1892 18.1855Z" fill="#7B7B7B"/>
<path d="M12.0027 3.24984C10.5639 3.24995 9.14744 3.60486 7.87864 4.28314C6.60984 4.96142 5.5279 5.94213 4.72863 7.13842C3.92937 8.3347 3.43747 9.70964 3.29649 11.1414C3.1555 12.5732 3.3698 14.0177 3.92039 15.3469C4.47097 16.6761 5.34086 17.849 6.45301 18.7617C7.56515 19.6744 8.88521 20.2988 10.2963 20.5795C11.7074 20.8602 13.1659 20.7886 14.5427 20.371C15.9194 19.9534 17.172 19.2028 18.1894 18.1855L19.073 19.0691C17.9103 20.2324 16.4787 21.091 14.9048 21.5688C13.331 22.0466 11.6637 22.1288 10.0505 21.8081C8.4373 21.4875 6.92811 20.7739 5.65663 19.7306C4.38516 18.6872 3.39065 17.3464 2.76123 15.8269C2.13181 14.3073 1.8869 12.656 2.04822 11.0192C2.20953 9.3824 2.77208 7.81065 3.68603 6.44322C4.59997 5.07579 5.83709 3.95489 7.28778 3.17986C8.73846 2.40482 10.3579 1.99956 12.0027 2V3.24984Z" fill="#7B7B7B"/>
<path d="M11.3779 5.74954C11.5436 5.74954 11.7025 5.81538 11.8197 5.93258C11.9369 6.04977 12.0028 6.20872 12.0028 6.37446V12.8861L16.0623 15.2059C16.202 15.2901 16.3032 15.4257 16.3443 15.5837C16.3853 15.7416 16.363 15.9093 16.282 16.051C16.2011 16.1927 16.0679 16.2971 15.911 16.3419C15.7541 16.3867 15.5859 16.3683 15.4423 16.2907L11.0679 13.791C10.9722 13.7364 10.8927 13.6575 10.8374 13.5622C10.7821 13.4669 10.753 13.3588 10.7529 13.2486V6.37446C10.7529 6.20872 10.8188 6.04977 10.936 5.93258C11.0532 5.81538 11.2121 5.74954 11.3779 5.74954Z" fill="#7B7B7B"/>
</svg>
