<svg width="26" height="26" viewBox="0 0 26 26" fill="none" xmlns="http://www.w3.org/2000/svg">
<g clip-path="url(#clip0)">
<path d="M22.4249 3.73752H19.4457V8.93753H22.4249V3.73752Z" fill="#F05540"/>
<path d="M23.5625 1.08331H18.3083V3.9H23.5625V1.08331Z" fill="#F3705A"/>
<path d="M2.2749 14.0292V26H23.5082V14.0292C19.3374 9.85842 17.0082 7.52924 12.8915 3.41255C8.7749 7.58337 6.44572 9.91255 2.2749 14.0292Z" fill="#FFD15C"/>
<path d="M23.5624 14.0292C19.3916 9.85842 17.0624 7.52924 12.9457 3.41255C10.8332 5.47087 9.20822 7.09587 7.58322 8.72087C5.95822 10.3459 4.33322 11.9709 2.2749 14.0292V16.4667C6.44572 12.2959 8.7749 9.96669 12.8916 5.85C17.0624 10.0208 19.3916 12.35 23.5083 16.4667V16.7917V14.0292H23.5624V14.0292Z" fill="#F7B64C"/>
<path d="M10.9959 26H4.60425V19.7167C4.60425 17.9292 6.06675 16.5209 7.80007 16.5209C9.58757 16.5209 10.9959 17.9834 10.9959 19.7167V26Z" fill="#415A6B"/>
<path d="M21.2334 16.5208H12.8917V23.8333H21.2334V16.5208Z" fill="#344A5E"/>
<path d="M16.629 17.3875H13.7582V22.9667H16.629V17.3875Z" fill="#8AD7F8"/>
<path d="M20.3664 17.3875H17.4956V22.9667H20.3664V17.3875Z" fill="#8AD7F8"/>
<path d="M25.5125 11.8083L14.1917 0.4875C13.5417 -0.1625 12.4042 -0.1625 11.7542 0.4875L0.4875 11.8083C-0.1625 12.4583 -0.1625 13.5958 0.4875 14.2458C1.1375 14.8958 2.275 14.8958 2.925 14.2458L13 4.17082L23.075 14.2458C23.725 14.8958 24.8625 14.8958 25.5125 14.2458C26.1625 13.5417 26.1625 12.4583 25.5125 11.8083Z" fill="#F3705A"/>
</g>
<defs>
<clipPath id="clip0">
<rect width="26" height="26" fill="white"/>
</clipPath>
</defs>
</svg>
