<svg width="26" height="26" viewBox="0 0 26 26" fill="none" xmlns="http://www.w3.org/2000/svg">
<path d="M25.1613 5.45164H5.87097V5.871C5.87097 6.10281 5.68339 6.29035 5.45162 6.29035C5.2198 6.29035 5.03227 6.10276 5.03227 5.871V5.45164H0.838703C0.375527 5.45164 0 5.82712 0 6.29035V9.98199C0 10.1934 0.103949 10.3943 0.283715 10.5055C1.11952 11.0224 1.67741 11.945 1.67741 13C1.67741 14.055 1.11952 14.9776 0.283715 15.4945C0.103949 15.6058 0 15.8067 0 16.0181V19.7097C0 20.1729 0.375527 20.5484 0.838703 20.5484H5.03227V20.129C5.03227 19.8972 5.21986 19.7097 5.45162 19.7097C5.68344 19.7097 5.87097 19.8973 5.87097 20.129V20.5484H25.1613C25.6245 20.5484 26 20.1729 26 19.7097V6.29035C26 5.82712 25.6245 5.45164 25.1613 5.45164ZM5.87097 18.4516C5.87097 18.6835 5.68339 18.871 5.45162 18.871C5.2198 18.871 5.03227 18.6834 5.03227 18.4516V17.6129C5.03227 17.3811 5.21986 17.1936 5.45162 17.1936C5.68344 17.1936 5.87097 17.3812 5.87097 17.6129V18.4516ZM5.87097 15.9355C5.87097 16.1673 5.68339 16.3548 5.45162 16.3548C5.2198 16.3548 5.03227 16.1672 5.03227 15.9355V15.0968C5.03227 14.865 5.21986 14.6774 5.45162 14.6774C5.68344 14.6774 5.87097 14.865 5.87097 15.0968V15.9355ZM5.87097 13.4194C5.87097 13.6512 5.68339 13.8387 5.45162 13.8387C5.2198 13.8387 5.03227 13.6511 5.03227 13.4194V12.5807C5.03227 12.3489 5.21986 12.1613 5.45162 12.1613C5.68344 12.1613 5.87097 12.3489 5.87097 12.5807V13.4194ZM5.87097 10.9033C5.87097 11.1351 5.68339 11.3226 5.45162 11.3226C5.2198 11.3226 5.03227 11.135 5.03227 10.9033V10.0646C5.03227 9.83275 5.21986 9.64521 5.45162 9.64521C5.68344 9.64521 5.87097 9.8328 5.87097 10.0646V10.9033ZM5.87097 8.38711C5.87097 8.61892 5.68339 8.80646 5.45162 8.80646C5.2198 8.80646 5.03227 8.61887 5.03227 8.38711V7.5484C5.03227 7.31659 5.21986 7.12905 5.45162 7.12905C5.68344 7.12905 5.87097 7.31664 5.87097 7.5484V8.38711Z" fill="#FFC350"/>
<path d="M24.742 19.7097H7.12907C6.89745 19.7097 6.70972 19.522 6.70972 19.2904V6.70971C6.70972 6.4781 6.89745 6.29036 7.12907 6.29036H24.742C24.9736 6.29036 25.1613 6.4781 25.1613 6.70971V19.2904C25.1613 19.522 24.9736 19.7097 24.742 19.7097Z" fill="#FFD164"/>
<path d="M15.5885 15.8979L13.4149 17.2625C12.9358 17.5633 12.3347 17.1265 12.4727 16.578L13.0988 14.0891L11.1293 12.4435C10.6952 12.0808 10.9249 11.3741 11.4892 11.3359L14.0498 11.1623L15.0062 8.78065C15.217 8.25577 15.96 8.25577 16.1708 8.78065L17.1272 11.1623L19.6878 11.3359C20.2521 11.3742 20.4818 12.0809 20.0477 12.4435L18.0782 14.0891L18.7043 16.578C18.8423 17.1265 18.2412 17.5633 17.7621 17.2625L15.5885 15.8979Z" fill="white"/>
<path d="M18.4316 15.4939C15.7142 15.3278 13.4104 13.6457 12.3576 11.2771L11.4892 11.3359C10.9249 11.3742 10.6952 12.0809 11.1293 12.4435L13.0988 14.0891L12.4726 16.578C12.3347 17.1266 12.9358 17.5633 13.4148 17.2626L15.5885 15.898L17.7621 17.2626C18.2411 17.5633 18.8422 17.1266 18.7042 16.578L18.4316 15.4939Z" fill="#FFF6D8"/>
</svg>
