<svg width="26" height="26" viewBox="0 0 26 26" fill="none" xmlns="http://www.w3.org/2000/svg">
<g clip-path="url(#clip0)">
<path d="M16.0422 25.6196H9.95776L10.9579 22.3568H15.0421L16.0422 25.6196Z" fill="#90ABBD"/>
<path d="M26 5.4925V20.0242C26 21.5202 24.7838 22.7372 23.2893 22.7372H2.7107C1.21621 22.7372 0 21.5202 0 20.0242V5.4925C0 3.99653 1.21621 2.77946 2.7107 2.77946H23.2893C24.7838 2.77946 26 3.99653 26 5.4925Z" fill="#56788B"/>
<path d="M25.9999 5.4925V20.0242C25.9999 21.5202 24.7837 22.7372 23.2892 22.7372H22.2736C23.7681 22.7372 24.9843 21.5202 24.9843 20.0242V5.4925C24.9843 3.99653 23.7681 2.77946 22.2736 2.77946H23.2892C24.7837 2.77946 25.9999 3.99653 25.9999 5.4925Z" fill="#415E6F"/>
<path d="M24.4805 5.42963V18.5151C24.4805 19.1794 23.9402 19.72 23.276 19.72H2.72382C2.0596 19.72 1.51929 19.1794 1.51929 18.5151V5.42963C1.51929 4.76531 2.0596 4.22474 2.72382 4.22474H23.276C23.9402 4.22474 24.4805 4.76531 24.4805 5.42963Z" fill="#D9F0F4"/>
<path d="M24.4808 5.42963V18.5151C24.4808 19.1794 23.9405 19.72 23.2762 19.72H22.2606C22.9248 19.72 23.4652 19.1794 23.4652 18.5151V5.42963C23.4652 4.76531 22.9248 4.22474 22.2606 4.22474H23.2762C23.9405 4.22474 24.4808 4.76531 24.4808 5.42963Z" fill="#BAE1E5"/>
<path d="M18.013 25.2393H7.98706C7.77672 25.2393 7.6062 25.4096 7.6062 25.6197C7.6062 25.8298 7.77672 26 7.98706 26H18.013C18.2233 26 18.3939 25.8298 18.3939 25.6197C18.3939 25.4096 18.2233 25.2393 18.013 25.2393Z" fill="#56788B"/>
<path d="M4.80857 20.875H3.25269C3.04235 20.875 2.87183 21.0453 2.87183 21.2554C2.87183 21.4654 3.04235 21.6357 3.25269 21.6357H4.80857C5.01891 21.6357 5.18943 21.4654 5.18943 21.2554C5.18943 21.0453 5.01891 20.875 4.80857 20.875Z" fill="#415E6F"/>
<path d="M7.85544 20.875H6.29956C6.08922 20.875 5.9187 21.0453 5.9187 21.2554C5.9187 21.4654 6.08922 21.6357 6.29956 21.6357H7.85544C8.06578 21.6357 8.2363 21.4654 8.2363 21.2554C8.2363 21.0453 8.06578 20.875 7.85544 20.875Z" fill="#415E6F"/>
<path d="M4.82508 15.9113H3.19287C2.98254 15.9113 2.81201 16.0819 2.81201 16.2922C2.81201 16.5025 2.98254 16.673 3.19287 16.673H4.82513C5.03547 16.673 5.20599 16.5025 5.20599 16.2922C5.20599 16.0819 5.03542 15.9113 4.82508 15.9113Z" fill="#90ABBD"/>
<path d="M2.81201 18.0695C2.81201 18.2799 2.98254 18.4504 3.19287 18.4504H5.83923C6.04957 18.4504 6.22009 18.2799 6.22009 18.0695C6.22009 17.8592 6.04957 17.6887 5.83923 17.6887H3.19287C2.98248 17.6887 2.81201 17.8592 2.81201 18.0695Z" fill="#90ABBD"/>
<path d="M21.3308 8.73587C21.3308 12.6052 18.692 15.8591 15.116 16.7952C14.4404 16.9724 13.7313 17.0664 12.9999 17.0664C8.39883 17.0664 4.66895 13.3366 4.66895 8.73587C4.669 4.13458 8.39888 0.404846 12.9999 0.404846C13.7314 0.404846 14.4405 0.498791 15.1161 0.676069C18.692 1.61217 21.3308 4.86598 21.3308 8.73587Z" fill="#D9F0F4"/>
<path d="M21.3309 8.73586C21.3309 12.6052 18.6921 15.859 15.1161 16.7951C18.2618 15.4725 20.4704 12.3619 20.4704 8.73586C20.4704 5.10977 18.2619 1.99871 15.1161 0.676064C18.6921 1.61217 21.3309 4.86597 21.3309 8.73586Z" fill="#BAE1E5"/>
<path d="M13 0C12.7968 0 12.5946 0.00710937 12.395 0.0208203C7.85643 0.332211 4.25964 4.12186 4.25964 8.73585C4.25964 13.3494 7.85643 17.139 12.395 17.4504C12.5946 17.4641 12.7968 17.4712 13 17.4712C17.8194 17.4712 21.7403 13.5525 21.7403 8.73585C21.7403 3.91869 17.8194 0 13 0V0ZM18.1105 2.61686C19.771 4.00451 20.8605 6.05348 20.9693 8.35494H18.4716C18.4188 6.36284 17.9525 4.48861 17.1398 2.99579C17.4395 2.89519 17.7305 2.78296 18.0125 2.66007C18.0454 2.6458 18.078 2.63159 18.1105 2.61686ZM16.7344 15.1444C16.9625 15.217 17.1855 15.2963 17.4029 15.3826C16.934 15.6934 16.4312 15.9566 15.9004 16.1643C16.196 15.8707 16.4754 15.5299 16.7344 15.1444ZM13.3809 16.6834V14.5979C14.2759 14.6228 15.1415 14.7345 15.9557 14.9286C15.2146 15.9454 14.3227 16.5539 13.3809 16.6834ZM16.3916 14.2525C15.4448 14.0046 14.4309 13.8634 13.3809 13.836V12.2624H12.619V13.836C11.569 13.8634 10.5552 14.0046 9.60838 14.2525C8.80634 12.8486 8.34408 11.0464 8.29025 9.11681H12.6191V10.4847H13.381V9.11681H17.7098C17.6558 11.0464 17.1936 12.8486 16.3916 14.2525ZM8.2902 8.35489C8.34403 6.42525 8.80629 4.62262 9.60833 3.21872C10.5551 3.46709 11.569 3.60831 12.6189 3.63573V8.35489H8.2902ZM13.3809 8.35489V3.63573C14.4309 3.60831 15.4447 3.46709 16.3916 3.21872C17.1936 4.62262 17.6559 6.42525 17.7097 8.35489H13.3809ZM15.9557 2.54267C15.1415 2.73721 14.2759 2.84893 13.3809 2.8733V0.78782C14.3227 0.917313 15.2146 1.52582 15.9557 2.54267ZM15.9004 1.30741C16.4312 1.51465 16.9341 1.77775 17.4029 2.08863C17.1855 2.17496 16.9625 2.25474 16.7344 2.32685C16.4754 1.94132 16.196 1.60098 15.9004 1.30741ZM12.619 0.78782V2.87336C11.724 2.84898 10.8584 2.73721 10.0442 2.54272C10.7853 1.52582 11.6773 0.917313 12.619 0.78782ZM10.0995 1.30741C9.80389 1.60098 9.52454 1.94132 9.26546 2.32685C9.0374 2.25423 8.81442 2.17496 8.59697 2.08863C9.06589 1.77775 9.56872 1.51465 10.0995 1.30741ZM7.88944 2.61686C8.20184 2.75707 8.52588 2.88351 8.86012 2.99579C8.04742 4.48861 7.58109 6.36284 7.52828 8.35494H5.03071C5.13938 6.05348 6.22894 4.00451 7.88944 2.61686ZM5.03071 9.11681H7.52833C7.58114 11.1084 8.04747 12.9826 8.86017 14.4754C8.52593 14.5877 8.20184 14.7142 7.88949 14.8549C6.22894 13.4667 5.13938 11.4177 5.03071 9.11681ZM8.59702 15.3826C8.81442 15.2963 9.0374 15.217 9.26551 15.1444C9.52454 15.5299 9.80394 15.8707 10.0996 16.1643C9.56872 15.9566 9.06589 15.6934 8.59702 15.3826ZM10.0442 14.9285C10.8584 14.7345 11.724 14.6228 12.619 14.5978V16.6834C11.6773 16.5539 10.7853 15.9454 10.0442 14.9285ZM18.1105 14.8544C18.078 14.8397 18.046 14.8254 18.013 14.8112C17.731 14.6883 17.4395 14.576 17.1398 14.4755C17.9525 12.9827 18.4188 11.1084 18.4716 9.11686H20.9693C20.8605 11.4177 19.771 13.4667 18.1105 14.8544Z" fill="#4DD4F7"/>
<path d="M21.7403 8.73585C21.7403 13.5526 17.8194 17.4712 13 17.4712C12.7968 17.4712 12.5946 17.4641 12.395 17.4504C14.5955 17.2848 16.5684 16.305 18.013 14.8112C18.046 14.8254 18.078 14.8396 18.1105 14.8543C19.771 13.4667 20.8606 11.4177 20.9693 9.11676H20.4623C20.4679 8.99077 20.4705 8.86331 20.4705 8.7358C20.4705 8.60828 20.4679 8.48082 20.4623 8.35484H20.9693C20.8606 6.05343 19.771 4.00446 18.1105 2.61676C18.078 2.63148 18.0455 2.6457 18.0125 2.65992C16.5678 1.16619 14.595 0.186418 12.395 0.0208203C12.5946 0.00710937 12.7968 0 13 0C17.8194 0 21.7403 3.91869 21.7403 8.73585Z" fill="#00C2F3"/>
<path d="M5.83321 5.71112C6.5348 5.71112 7.10355 5.14259 7.10355 4.44128C7.10355 3.73997 6.5348 3.17144 5.83321 3.17144C5.13162 3.17144 4.56287 3.73997 4.56287 4.44128C4.56287 5.14259 5.13162 5.71112 5.83321 5.71112Z" fill="#FF6B81"/>
<path d="M13 10.1035C12.2996 10.1035 11.7297 10.6731 11.7297 11.3733C11.7297 12.0735 12.2996 12.6432 13 12.6432C13.7005 12.6432 14.2704 12.0735 14.2704 11.3733C14.2704 10.6731 13.7005 10.1035 13 10.1035Z" fill="#FF6B81"/>
<path d="M17.8365 7.3023C18.5381 7.3023 19.1068 6.73377 19.1068 6.03246C19.1068 5.33115 18.5381 4.76263 17.8365 4.76263C17.1349 4.76263 16.5662 5.33115 16.5662 6.03246C16.5662 6.73377 17.1349 7.3023 17.8365 7.3023Z" fill="#FF6B81"/>
</g>
<defs>
<clipPath id="clip0">
<rect width="26" height="26" fill="white"/>
</clipPath>
</defs>
</svg>
