<svg width="26" height="26" viewBox="0 0 26 26" fill="none" xmlns="http://www.w3.org/2000/svg">
<path d="M0 20.8448H26V22.6379C26 23.6282 25.1971 24.431 24.2069 24.431H1.7931C0.802869 24.431 0 23.6282 0 22.6379V20.8448Z" fill="#FCBC04"/>
<path d="M2.6897 20.8448H26V22.6379H4.4828C3.49257 22.6379 2.6897 21.8351 2.6897 20.8448Z" fill="#F9E109"/>
<path d="M4.03444 7.39655H21.9655C22.9557 7.39655 23.7586 8.19941 23.7586 9.18965V20.8448H2.24133V9.18965C2.24133 8.19941 3.0442 7.39655 4.03444 7.39655Z" fill="#2D72BC"/>
<path d="M10.3103 20.8448H15.6896V22.6379H10.3103V20.8448Z" fill="#E59730"/>
<path d="M4.93103 7.39655H21.9655C22.9557 7.39655 23.7586 8.19941 23.7586 9.18965V18.1552H12.1034C8.14229 18.1552 4.93103 14.9439 4.93103 10.9828V7.39655Z" fill="#4891D3"/>
<path d="M13 7.39655H21.9655C22.9558 7.39655 23.7586 8.19941 23.7586 9.18965V10.0862H15.6897C14.2043 10.0862 13 8.8819 13 7.39655Z" fill="#57B7EB"/>
<path d="M6.72412 13.2241H19.2758V16.8103H6.72412V13.2241Z" fill="#2D72BC"/>
<path d="M6.72411 10.5345H4.03446C3.7869 10.5345 3.58618 10.3338 3.58618 10.0862C3.58618 9.83864 3.7869 9.63792 4.03446 9.63792H6.72411C6.97167 9.63792 7.17239 9.83864 7.17239 10.0862C7.17239 10.3338 6.97167 10.5345 6.72411 10.5345Z" fill="#7AB92D"/>
<path d="M14.7932 19.0517H11.2069C10.9594 19.0517 10.7587 18.851 10.7587 18.6034C10.7587 18.3559 10.9594 18.1552 11.2069 18.1552H14.7932C15.0407 18.1552 15.2414 18.3559 15.2414 18.6034C15.2414 18.851 15.0407 19.0517 14.7932 19.0517Z" fill="#7AB92D"/>
<path d="M7.17241 10.0862C7.17241 9.83864 6.97169 9.63792 6.72413 9.63792H4.93103V10.5345H6.72413C6.97169 10.5345 7.17241 10.3338 7.17241 10.0862Z" fill="#A1D51C"/>
<path d="M8.96545 15.0172V1.56897H17.0344V15.0172H8.96545Z" fill="#7AB92D"/>
<path d="M10.3103 9.18965V1.56897H17.0344V13.6724H14.7931C12.3173 13.6724 10.3103 11.6655 10.3103 9.18965Z" fill="#A1D51C"/>
<path d="M15.6897 7.39656V1.56897H17.0345V8.74138C16.2918 8.74138 15.6897 8.13923 15.6897 7.39656Z" fill="#C4F236"/>
<path d="M14.7931 8.2931C14.7931 9.28334 13.9902 10.0862 13 10.0862C12.0098 10.0862 11.2069 9.28334 11.2069 8.2931C11.2069 7.30287 12.0098 6.5 13 6.5C13.9902 6.5 14.7931 7.30287 14.7931 8.2931Z" fill="#FCBC04"/>
<path d="M14.7931 1.56897H17.0345V3.81035C15.7967 3.81035 14.7931 2.80676 14.7931 1.56897Z" fill="#FCBC04"/>
<path d="M8.96545 3.81035V1.56897H11.2068C11.2068 2.80676 10.2032 3.81035 8.96545 3.81035Z" fill="#E59730"/>
<path d="M14.7931 15.0172C14.7931 13.7795 15.7967 12.7759 17.0345 12.7759V15.0172H14.7931Z" fill="#E59730"/>
<path d="M8.96545 15.0172V12.7759C10.2032 12.7759 11.2068 13.7795 11.2068 15.0172H8.96545Z" fill="#E59730"/>
<path d="M17.0345 3.81035C16.5495 3.81035 16.0778 3.65297 15.6897 3.36207V1.56897H17.0345V3.81035Z" fill="#F9E109"/>
<path d="M10.3103 3.36208V1.56897H11.2069C11.2069 2.27444 10.8746 2.93875 10.3103 3.36208Z" fill="#FCBC04"/>
<path d="M17.0344 12.7759V13.6724H15.2413C15.6647 13.1081 16.329 12.7759 17.0344 12.7759Z" fill="#FCBC04"/>
<path d="M12.9999 13.2241C12.7524 13.2241 12.5516 13.0234 12.5516 12.7759V11.8793C12.5516 11.6318 12.7524 11.431 12.9999 11.431C13.2475 11.431 13.4482 11.6318 13.4482 11.8793V12.7759C13.4482 13.0234 13.2475 13.2241 12.9999 13.2241Z" fill="#FCBC04"/>
<path d="M12.9999 5.15518C12.7524 5.15518 12.5516 4.95446 12.5516 4.7069V3.81035C12.5516 3.56279 12.7524 3.36208 12.9999 3.36208C13.2475 3.36208 13.4482 3.56279 13.4482 3.81035V4.7069C13.4482 4.95446 13.2475 5.15518 12.9999 5.15518Z" fill="#FCBC04"/>
</svg>
