<svg width="26" height="26" viewBox="0 0 26 26" fill="none" xmlns="http://www.w3.org/2000/svg">
<path d="M12.2383 4.61976V9.19007H1.52344C0.685547 9.19007 0 6.98109 0 6.1432C0 5.30531 0.685547 4.61976 1.52344 4.61976H12.2383Z" fill="#285059"/>
<path d="M23.5736 8.96395L22.2696 5.52032L16.5254 2.84445L12.2384 4.40516L0.743952 8.57115C0.395846 8.6976 0.189014 9.0554 0.254471 9.41991C0.318456 9.78366 0.635331 10.0485 1.00431 10.0485H1.00578L12.2384 10.0164L22.8595 9.98597C23.108 9.98521 23.34 9.864 23.4828 9.66016C23.6242 9.45714 23.6584 9.19678 23.5736 8.96395Z" fill="#5CE6B8"/>
<path d="M23.4828 9.66021C23.6241 9.45713 23.6583 9.19678 23.5735 8.96395L22.2695 5.52032L16.5253 2.84445L12.2383 4.40516V10.0164L22.8594 9.98602C23.1079 9.98526 23.3399 9.86399 23.4828 9.66021Z" fill="#3DCCB4"/>
<path d="M24.4766 8.42836V23.6628C24.4766 24.0893 24.1415 24.4245 23.7148 24.4245H2.28516C1.02065 24.4245 0 23.4037 0 22.1393V6.1432C0 6.98109 0.685547 7.66664 1.52344 7.66664H23.7148C24.1415 7.66664 24.4766 8.00174 24.4766 8.42836Z" fill="#3F6A73"/>
<path d="M24.4766 8.42835V23.6628C24.4766 24.0893 24.1415 24.4245 23.7148 24.4245H12.2383V7.66663H23.7148C24.1415 7.66663 24.4766 8.00174 24.4766 8.42835Z" fill="#285059"/>
<path d="M20.6038 1.64748C20.4223 1.5612 20.2125 1.55226 20.0221 1.62219L16.5253 2.84444C16.7323 4.12408 17.5105 5.10934 18.4451 5.624C19.6015 6.25953 21.0356 6.26512 22.2695 5.52031L20.998 2.07739C20.9296 1.88772 20.7868 1.73299 20.6038 1.64748Z" fill="#5CE6B8"/>
<path d="M23.7148 19.8542H19.0938C16.9931 19.8542 15.2852 18.1455 15.2852 16.0455C15.2852 13.9456 16.9931 12.2369 19.0938 12.2369H23.7148C24.9749 12.2369 26 13.262 26 14.5221V17.569C26 18.8291 24.9749 19.8542 23.7148 19.8542Z" fill="#3F6A73"/>
<path d="M19.0938 16.8072C19.5144 16.8072 19.8555 16.4662 19.8555 16.0455C19.8555 15.6248 19.5144 15.2838 19.0938 15.2838C18.6731 15.2838 18.332 15.6248 18.332 16.0455C18.332 16.4662 18.6731 16.8072 19.0938 16.8072Z" fill="#FFBB33"/>
<path d="M5.53765 13.367C4.49465 13.367 3.73865 14.207 3.73865 15.229C3.73865 16.251 4.46665 17.091 5.64265 17.091C6.26565 17.091 6.78365 16.846 7.09865 16.419L6.57365 16.083C6.37765 16.335 6.02765 16.482 5.64265 16.482C4.94965 16.482 4.51565 16.083 4.41765 15.502H7.23865C7.40665 14.179 6.50365 13.367 5.53765 13.367ZM4.41765 14.956C4.51565 14.368 4.92865 13.969 5.53765 13.969C6.13965 13.969 6.51065 14.354 6.59465 14.956H4.41765Z" fill="#5CE6B8"/>
</svg>
