<svg width="26" height="26" viewBox="0 0 26 26" fill="none" xmlns="http://www.w3.org/2000/svg">
<path d="M10.9715 25.8637L21.0002 8.59583C21.2273 8.20486 20.9052 7.72376 20.4573 7.7847L13.7864 8.6914L15.3803 0.323572C15.434 0.0414824 15.0703 -0.120154 14.897 0.108717L5.03656 13.1244C4.74935 13.5035 5.05348 14.0426 5.52645 13.9928L12.881 13.2186L10.47 25.6757C10.4118 25.9761 10.8178 26.1283 10.9715 25.8637Z" fill="#FFDC64"/>
<path d="M8.1201 12.2021C7.93592 12.2168 7.81359 12.0154 7.91149 11.8588L15.2839 0.0630142C15.1742 -0.0237709 15.0015 -0.0293568 14.897 0.108667L5.03656 13.1244C4.74935 13.5035 5.05348 14.0425 5.52645 13.9928L12.881 13.2186L10.47 25.6757C10.4375 25.8437 10.5508 25.9619 10.6833 25.9902L14.8148 12.9167C15.0085 12.3039 14.5199 11.69 13.8793 11.7413L8.1201 12.2021Z" fill="#FFC850"/>
</svg>
