<svg width="273" height="182" viewBox="0 0 273 182" fill="none" xmlns="http://www.w3.org/2000/svg">
<path d="M210.4 120.47C211.261 136.32 180.272 168.55 142.077 156.621C124.313 151.072 125.817 141.862 112.309 129.725C104.258 122.491 92.6892 117.021 89.4718 106.505C86.6923 97.4291 88.3968 87.6736 93.2155 81.3282C104.053 67.0579 125.932 57.286 147.49 79.7703C169.047 102.255 208.178 79.591 210.4 120.47Z" fill="url(#paint0_linear)"/>
<path d="M197.812 52.9183C195.264 57.4641 189.686 58.0886 180.75 57.2247C174.028 56.5741 167.9 56.0703 161.178 52.4057C156.473 49.8425 152.749 46.3745 150.031 43.0063C147.086 39.3575 142.975 35.193 144.99 31.0559C147.759 25.3726 163.776 20.586 179.329 28.4138C196.414 37.0146 200.303 48.4757 197.812 52.9183Z" fill="url(#paint1_linear)"/>
<path d="M183.047 23.3506C182.881 23.2911 182.714 23.2372 182.544 23.1889C182.488 23.1728 182.433 23.1556 182.377 23.1413C182.257 23.1108 182.136 23.0819 182.015 23.0545C181.957 23.042 181.899 23.0304 181.841 23.0197C181.719 22.997 181.598 22.9765 181.476 22.9584C181.404 22.9484 181.333 22.9393 181.261 22.9311C181.127 22.9156 180.992 22.9037 180.857 22.8953C180.814 22.8929 180.771 22.8886 180.727 22.8871C180.6 22.8809 180.472 22.8778 180.344 22.8777H121.47C121.065 22.8766 120.661 22.9073 120.261 22.9696C120.13 22.9897 120 23.0129 119.87 23.0394C116.51 23.7273 113.924 26.5438 113.572 30.0212C113.544 30.2893 113.531 30.5605 113.531 30.8353V151.457C113.531 154.901 115.713 157.833 118.768 158.941C118.782 158.947 118.796 158.951 118.809 158.955C118.961 159.009 119.115 159.058 119.27 159.102C119.326 159.118 119.381 159.135 119.438 159.15C119.498 159.165 119.558 159.18 119.617 159.194C119.677 159.208 119.739 159.223 119.8 159.237C119.858 159.249 119.916 159.26 119.975 159.272C120.096 159.294 120.217 159.314 120.339 159.333C120.41 159.343 120.481 159.351 120.553 159.36C120.688 159.375 120.822 159.387 120.957 159.396C121 159.398 121.044 159.403 121.087 159.404C121.214 159.41 121.342 159.413 121.47 159.413H180.346C180.62 159.413 180.891 159.4 181.158 159.373C184.894 158.992 187.865 156.014 188.244 152.269C188.272 152.001 188.285 151.73 188.285 151.455V30.8353C188.284 27.391 186.101 24.4587 183.047 23.3506Z" fill="#3B5383"/>
<path d="M150.907 152.931C153.435 152.931 155.484 150.882 155.484 148.355C155.484 145.827 153.435 143.778 150.907 143.778C148.379 143.778 146.33 145.827 146.33 148.355C146.33 150.882 148.379 152.931 150.907 152.931Z" fill="white"/>
<path d="M158.154 28.979H144.042C143.621 28.979 143.28 29.3204 143.28 29.7417C143.28 30.1629 143.621 30.5044 144.042 30.5044H158.154C158.575 30.5044 158.917 30.1629 158.917 29.7417C158.917 29.3204 158.575 28.979 158.154 28.979Z" fill="white"/>
<path d="M146.162 64.0937C147.194 64.0937 148.031 63.2571 148.031 62.2252C148.031 61.1932 147.194 60.3567 146.162 60.3567C145.13 60.3567 144.294 61.1932 144.294 62.2252C144.294 63.2571 145.13 64.0937 146.162 64.0937Z" fill="white"/>
<path d="M165.081 65.6532C164.438 65.5541 163.789 65.5014 163.139 65.4954C159.218 65.4672 155.483 67.1859 152.92 70.1977C150.357 73.2092 149.225 77.2105 149.821 81.1441" stroke="white" stroke-width="10.395" stroke-linecap="round" stroke-linejoin="round"/>
<path d="M165.782 66.5462C165.782 70.5416 164.194 74.3733 161.369 77.1985C158.544 80.0237 154.712 81.6108 150.717 81.6109V81.6109C146.721 81.6109 142.889 80.0238 140.064 77.1986C137.239 74.3734 135.652 70.5416 135.652 66.5462V66.5462C135.652 62.5507 137.239 58.7188 140.064 55.8936C142.889 53.0683 146.721 51.4811 150.717 51.4811V51.4811C152.695 51.4811 154.654 51.8708 156.482 52.6279C158.31 53.385 159.97 54.4947 161.369 55.8936C162.768 57.2925 163.878 58.9533 164.635 60.781C165.392 62.6088 165.782 64.5678 165.782 66.5462Z" stroke="white" stroke-width="10.395" stroke-linecap="round" stroke-linejoin="round"/>
<path d="M171.502 111.36H132.219C131.376 111.36 130.693 112.043 130.693 112.885V112.885C130.693 113.728 131.376 114.411 132.219 114.411H171.502C172.345 114.411 173.028 113.728 173.028 112.885V112.885C173.028 112.043 172.345 111.36 171.502 111.36Z" fill="white"/>
<path d="M171.503 102.206H135.27C134.427 102.206 133.745 102.889 133.745 103.732V103.732C133.745 104.575 134.427 105.258 135.27 105.258H171.503C172.345 105.258 173.028 104.575 173.028 103.732V103.732C173.028 102.889 172.345 102.206 171.503 102.206Z" fill="white"/>
<path d="M171.503 93.053H130.312C129.47 93.053 128.787 93.7359 128.787 94.5784V94.5787C128.787 95.4212 129.47 96.1042 130.312 96.1042H171.503C172.345 96.1042 173.028 95.4212 173.028 94.5787V94.5784C173.028 93.7359 172.345 93.053 171.503 93.053Z" fill="white"/>
<path d="M199.737 29.3337C200.082 30.6243 199.316 31.951 198.026 32.2968C196.735 32.6426 195.408 31.8767 195.063 30.586C194.717 29.2954 195.483 27.9687 196.773 27.6229C198.064 27.2771 199.391 28.043 199.737 29.3337Z" fill="#E1E4E5"/>
<path d="M80.1006 44.29C79.9107 45.0486 80.1625 45.8373 80.5778 46.5001C80.8711 46.9681 81.2812 46.4513 81.8794 46.3684C82.8042 46.2389 83.39 45.2595 83.5902 42.874C83.683 41.1314 83.6393 40.262 83.5423 40.1101C83.1968 39.5653 82.308 39.3833 81.607 39.4358" fill="#31446C"/>
<path fill-rule="evenodd" clip-rule="evenodd" d="M81.7799 147.981C81.7799 147.981 81.7238 151.564 83.9351 152.836C86.1464 154.109 89.5722 156.474 89.5722 156.474L76.5395 156.913L76.9111 147.949L81.7799 147.981Z" fill="#F8AE9D"/>
<path fill-rule="evenodd" clip-rule="evenodd" d="M76.0848 151.929L75.8728 157.741H78.9L79.1075 156.993C79.1075 156.993 80.2471 156.946 80.9057 157.27C81.6018 157.612 81.6953 157.777 81.6953 157.777L91.2973 157.798C91.2973 157.798 91.7708 155.919 88.8439 154.56C85.917 153.201 83.7861 151.272 83.3812 151.075C82.9735 150.876 82.1509 150.764 81.5715 151.231C80.9921 151.698 80.5338 152.926 79.221 152.965C77.5314 153.015 76.5607 150.946 76.0848 151.929ZM72.3423 89.5103C72.3423 89.5103 75.8995 119.693 76.0099 121.791C76.1206 123.889 74.8675 127.51 74.8918 131.435C74.9164 135.359 75.3495 149.191 75.3495 149.191L83.1962 149.319C83.1962 149.319 86.494 124.324 86.5295 120.575C86.565 116.827 86.8674 89.871 86.8674 89.871L72.3423 89.5103Z" fill="#31446C"/>
<path fill-rule="evenodd" clip-rule="evenodd" d="M62.7451 147.351L61.216 156.638L66.8532 156.61L67.0315 147.206L62.7451 147.351Z" fill="#F8AE9D"/>
<path fill-rule="evenodd" clip-rule="evenodd" d="M61.8348 151.434C61.6535 151.474 61.4905 151.573 61.3717 151.715C61.2529 151.858 61.1851 152.036 61.179 152.221L61.1232 153.915C60.316 154.813 59.9399 157.427 59.9081 157.657C59.9062 157.668 59.9056 157.68 59.9062 157.691C59.986 158.965 68.3516 158.942 69.0108 157.732C69.0299 157.694 69.0355 157.651 69.0266 157.61C68.955 157.167 68.4963 154.537 67.596 153.831L67.59 152.156C67.5892 151.974 67.5285 151.796 67.417 151.651C67.3056 151.507 67.1497 151.402 66.9733 151.355L65.8312 151.048C65.0071 149.843 63.8838 149.885 62.9217 151.198L61.8348 151.434ZM65.5127 89.7942C65.5127 89.7942 63.0005 110.387 63.0348 114.331C63.0688 118.274 63.8077 120.006 62.7561 122.835C61.7041 125.664 60.8071 148.244 60.8071 148.244L68.5852 148.892C68.5852 148.892 73.5541 124.73 74.0944 121.38C74.6349 118.03 81.3131 89.5103 81.3131 89.5103L65.5127 89.7942Z" fill="#31446C"/>
<path fill-rule="evenodd" clip-rule="evenodd" d="M104.298 52.7691C104.298 52.7691 103.648 49.15 103.882 48.4172C104.081 47.7838 105.966 46.8705 105.966 46.8705C105.966 46.8705 109.245 41.6907 109.963 42.2182C110.546 42.6459 108.255 46.4643 108.255 46.4643C108.255 46.4643 110.344 48.6565 110.315 49.6363C110.286 50.6163 106.905 53.6836 106.905 53.6836L104.298 52.7691ZM70.5984 53.6193C70.5984 53.6193 72.7578 53.1125 72.8327 49.5741C72.9077 46.036 72.8552 44.8281 72.8552 44.8281L77.9745 44.7423C77.9745 44.7423 78.0261 48.6856 78.027 50.1119C78.0291 53.2171 80.3351 54.0561 80.3351 54.0561C80.3351 54.0561 80.1434 57.4513 75.8336 57.6937C72.4684 57.8833 70.5984 53.6193 70.5984 53.6193Z" fill="#F8AE9D"/>
<path fill-rule="evenodd" clip-rule="evenodd" d="M72.3848 43.0397C70.2629 42.9575 70.609 46.0636 72.8134 46.0596C72.8134 46.0596 75.1821 50.8226 78.9013 50.835C80.6928 50.8411 81.2776 49.2453 81.8148 48.125C82.3517 47.0048 82.746 45.3292 82.7788 44.303C82.814 43.2092 82.8185 39.6153 82.8185 39.6153L72.3022 39.6108L72.3848 43.0397Z" fill="#F8AE9D"/>
<path fill-rule="evenodd" clip-rule="evenodd" d="M80.4158 53.8453C80.4158 53.8453 85.931 55.567 87.2599 57.6236C91.5415 61.3847 96.8959 66.5498 96.8959 66.5498C96.8959 66.5498 101.996 53.7504 103.663 52.291C104.804 51.2928 107.076 52.5273 107.5 53.7962C108.044 55.426 104.551 64.9852 102.901 69.4997V69.5C102.582 70.3745 102.331 71.0598 102.193 71.4611C101.187 74.3795 98.7396 76.0536 95.7611 74.1984C94.5605 73.451 90.9876 71.0009 87.9394 68.7796C87.8918 71.1129 87.8117 73.5717 87.7352 75.9067V75.9073C87.5499 81.5806 87.3885 86.5246 87.7765 87.1671C89.699 90.3512 87.1428 92.537 78.6795 93.3402C70.2165 94.1434 62.7084 93.4855 64.0707 89.2364C64.3549 88.3507 64.3513 86.4448 64.2096 83.969C63.3804 83.9247 62.5519 83.87 61.7241 83.8049C58.1921 83.5268 55.5801 82.0092 55.2158 78.0674C54.9604 75.3074 60.219 62.3493 62.1906 58.0886C62.652 57.0919 63.3651 56.471 64.1732 56.1616C64.3613 55.9517 64.573 55.8042 64.8111 55.7257C66.2595 55.2482 71.4526 53.0667 71.4526 53.0667L77.6303 57.1086L80.4158 53.8453ZM63.6375 76.6551C63.6327 76.667 63.6281 76.6791 63.6236 76.6912L63.6406 76.6933L63.6375 76.6551Z" fill="#3D5486"/>
<path fill-rule="evenodd" clip-rule="evenodd" d="M77.3451 80.0748C77.3451 80.0748 79.2294 79.696 80.0005 79.0905C80.7716 78.4854 83.1069 78.0574 83.1069 78.0574L82.3598 79.6308C82.3598 79.6308 88.0834 79.0936 88.219 79.6581C88.3549 80.2229 86.6993 80.8365 86.6993 80.8365C86.6993 80.8365 85.8827 82.3617 85.0926 83.2456C84.3445 84.0819 80.6293 83.9824 79.3271 83.4603C78.2014 83.0096 76.9778 83.235 76.9778 83.235L77.3451 80.0748Z" fill="#F8AE9D"/>
<path d="M72.962 39.757C73.272 40.1628 73.8189 40.2523 74.2691 40.3327C74.8745 40.4404 75.1739 40.6652 75.4881 41.2682C75.6871 41.6534 75.8861 42.0754 76.2422 42.2841C76.5322 42.4548 76.5234 42.0229 76.5665 41.6889C76.5703 41.6577 76.5764 41.6268 76.5847 41.5964C76.6539 41.3295 76.9372 41.3741 77.0194 41.6373C77.0946 41.8758 77.256 42.0778 77.4613 42.19C77.4947 42.2082 77.5305 42.2243 77.566 42.2176C77.6142 42.2106 77.6518 42.1648 77.6834 42.1236C77.7486 42.0377 77.8135 41.9288 77.8805 41.8136C78.1023 41.4326 78.5248 41.5664 78.7723 41.931C78.9273 42.1579 79.1118 42.3917 79.3654 42.4445C79.4469 42.463 79.5495 42.4491 79.5874 42.369C79.6353 42.2704 79.5601 42.1715 79.5725 42.0708C79.5831 41.9768 79.6229 41.9355 79.6669 41.8551C79.8385 41.5457 80.2359 41.5342 80.4783 41.7923C80.6469 41.9718 80.8228 42.1442 81.0055 42.3092C81.0828 42.3781 81.196 42.4469 81.2733 42.3781C81.3152 42.3414 81.3258 42.2795 81.3343 42.2197C81.3783 41.9285 81.4201 41.6373 81.4641 41.3461C81.4893 41.1833 81.5751 40.97 81.7216 41.0113C81.7929 41.0319 81.8348 41.1077 81.8745 41.1766C81.9227 41.2636 82.7836 42.2564 82.8003 42.1809C82.9344 41.6167 83.2089 41.1032 83.343 40.539C84.2102 36.9093 80.3624 33.9903 77.4234 33.9742C76.77 33.9694 76.1731 33.9803 75.5385 34.1341C74.8618 34.2991 74.1477 34.5612 73.5338 34.9303C72.6729 35.4463 72.0217 36.3842 72.1891 37.5032" fill="#31446C"/>
<path d="M75.3519 38.5837C75.7663 39.0578 75.8761 39.7245 75.9146 40.3546C75.9713 41.3046 75.8943 42.2913 75.4596 43.1346C75.3355 43.3748 75.2442 44.5627 75.0531 44.4972C74.9925 44.4766 75.0025 43.5553 74.842 43.0588C74.5942 42.2892 73.4525 41.9959 72.9386 42.4821C72.1181 43.2556 72.5995 44.1954 72.8716 44.7802C73.0342 45.1333 73.292 45.5291 73.3369 45.9025C73.3915 46.3806 73.4079 48.1226 73.0991 48.5288C72.8412 48.8694 72.567 47.2238 72.3335 46.8999C70.6048 44.4847 68.9471 38.3356 71.8985 37.0018C72.3474 36.7989 73.733 36.6942 74.1535 36.9527" fill="#31446C"/>
<path d="M44.7565 106.201C42.8826 106.645 40.9006 105.056 40.9006 105.056C40.9006 105.056 41.9583 102.748 43.8329 102.305C45.7069 101.861 47.6883 103.449 47.6883 103.449C47.6883 103.449 46.6305 105.757 44.7565 106.201Z" fill="url(#paint2_linear)"/>
<path d="M217.72 30.9157C214.069 34.6325 207.24 33.8487 207.24 33.8487C207.24 33.8487 206.336 27.0388 209.992 23.3245C213.643 19.6078 220.468 20.3892 220.468 20.3892C220.468 20.3892 221.372 27.199 217.72 30.9157Z" fill="url(#paint3_linear)"/>
<path d="M229.206 131.105C227.473 131.105 226.069 132.51 226.069 134.243C226.069 135.975 227.473 137.38 229.206 137.38C230.939 137.38 232.343 135.975 232.343 134.243C232.343 132.51 230.939 131.105 229.206 131.105Z" fill="#5976B3"/>
<path d="M97.8107 135.893C95.892 135.893 94.3366 137.371 94.3366 139.194C94.3366 141.016 95.892 142.494 97.8107 142.494C99.7294 142.494 101.285 141.016 101.285 139.194C101.285 137.371 99.7294 135.893 97.8107 135.893Z" fill="#5976B3"/>
<path d="M222.707 62.402C220.223 62.402 218.209 60.3886 218.209 57.9048C218.209 55.4211 220.223 53.4076 222.707 53.4076C225.19 53.4076 227.204 55.4211 227.204 57.9048C227.204 60.3886 225.19 62.402 222.707 62.402Z" fill="#5976B3"/>
<path d="M97.4631 122.083C95.7364 122.083 94.3367 120.76 94.3367 119.13C94.3367 117.499 95.7364 116.177 97.4631 116.177C99.1898 116.177 100.59 117.499 100.59 119.13C100.59 120.76 99.1898 122.083 97.4631 122.083Z" fill="#E1E4E5"/>
<path d="M49.2231 124.533C47.837 124.533 46.7133 123.409 46.7133 122.023C46.7133 120.637 47.837 119.513 49.2231 119.513C50.6092 119.513 51.7329 120.637 51.7329 122.023C51.7329 123.409 50.6092 124.533 49.2231 124.533Z" fill="#E1E4E5"/>
<path d="M209.586 150.115C208.758 150.115 208.087 149.444 208.087 148.616C208.087 147.788 208.758 147.117 209.586 147.117C210.414 147.117 211.085 147.788 211.085 148.616C211.085 149.444 210.414 150.115 209.586 150.115Z" fill="#E1E4E5"/>
<path d="M173.525 17.6297C172.342 17.6297 171.383 16.6709 171.383 15.4882C171.383 14.3055 172.342 13.3467 173.525 13.3467C174.708 13.3467 175.666 14.3055 175.666 15.4882C175.666 16.6709 174.708 17.6297 173.525 17.6297Z" fill="#E1E4E5"/>
<path d="M48.871 147.318C49.1701 148.435 48.5076 149.582 47.3912 149.881C46.2748 150.18 45.1273 149.518 44.8282 148.401C44.5291 147.285 45.1916 146.138 46.3079 145.838C47.4243 145.539 48.5718 146.202 48.871 147.318Z" fill="#E1E4E5"/>
<path d="M44.0374 62.2913C42.4998 62.2913 41.2534 61.0449 41.2534 59.5073C41.2534 57.9698 42.4998 56.7233 44.0374 56.7233C45.5749 56.7233 46.8214 57.9698 46.8214 59.5073C46.8214 61.0449 45.5749 62.2913 44.0374 62.2913Z" fill="#E1E4E5"/>
<path d="M230.279 110.503C229.096 110.503 228.137 109.736 228.137 108.79C228.137 107.844 229.096 107.077 230.279 107.077C231.462 107.077 232.42 107.844 232.42 108.79C232.42 109.736 231.462 110.503 230.279 110.503Z" fill="#E1E4E5"/>
<path d="M208.417 118.434C209.04 120.758 207.661 123.146 205.338 123.768C203.014 124.391 200.626 123.012 200.004 120.689C199.381 118.365 200.76 115.977 203.083 115.355C205.407 114.732 207.795 116.111 208.417 118.434Z" fill="#E1E4E5"/>
<path d="M217.707 85.8433H217.763C218.095 90.5438 221.59 90.616 221.59 90.616C221.59 90.616 217.735 90.6912 217.735 96.1224C217.735 90.6912 213.881 90.616 213.881 90.616C213.881 90.616 217.375 90.5438 217.707 85.8433ZM84.1507 13.3467H84.2056C84.5296 18.1287 87.9436 18.2024 87.9436 18.2024C87.9436 18.2024 84.1789 18.2789 84.1789 23.8044C84.1789 18.2789 80.414 18.2024 80.414 18.2024C80.414 18.2024 83.8268 18.1287 84.1507 13.3467ZM49.2368 37.9167H49.2914C49.6156 42.6987 53.0296 42.7724 53.0296 42.7724C53.0296 42.7724 49.2647 42.8489 49.2647 48.3744C49.2647 42.8489 45.5 42.7724 45.5 42.7724C45.5 42.7724 48.9128 42.6987 49.2368 37.9167ZM204.271 57.9367H204.325C204.65 62.7187 208.064 62.7924 208.064 62.7924C208.064 62.7924 204.299 62.8689 204.299 68.3944C204.299 62.8689 200.534 62.7924 200.534 62.7924C200.534 62.7924 203.947 62.7187 204.271 57.9367ZM98.3419 28.8167H98.3828C98.6249 32.3896 101.176 32.4448 101.176 32.4448C101.176 32.4448 98.3631 32.5019 98.3631 36.6305C98.3631 32.5019 95.55 32.4448 95.55 32.4448C95.55 32.4448 98.0998 32.3896 98.3419 28.8167Z" fill="#E1E4E5"/>
<defs>
<linearGradient id="paint0_linear" x1="173.363" y1="215.479" x2="115.397" y2="-46.042" gradientUnits="userSpaceOnUse">
<stop stop-color="white"/>
<stop offset="1" stop-color="#EEEEEE"/>
</linearGradient>
<linearGradient id="paint1_linear" x1="180.653" y1="82.3787" x2="157.951" y2="-19.6357" gradientUnits="userSpaceOnUse">
<stop stop-color="white"/>
<stop offset="1" stop-color="#EEEEEE"/>
</linearGradient>
<linearGradient id="paint2_linear" x1="37.6995" y1="107.305" x2="54.1047" y2="99.5549" gradientUnits="userSpaceOnUse">
<stop stop-color="white"/>
<stop offset="1" stop-color="#EEEEEE"/>
</linearGradient>
<linearGradient id="paint3_linear" x1="203.15" y1="43.6111" x2="229.55" y2="2.22672" gradientUnits="userSpaceOnUse">
<stop stop-color="white"/>
<stop offset="1" stop-color="#EEEEEE"/>
</linearGradient>
</defs>
</svg>
