<svg width="109" height="109" viewBox="0 0 109 109" fill="none" xmlns="http://www.w3.org/2000/svg">
<rect y="9" width="100" height="100" rx="5" fill="#F5F5F5"/>
<rect x="9" width="100" height="100" rx="5" fill="#3E578D"/>
<path d="M64.0468 36.297C64.7071 35.6683 65.5858 35.3208 66.4975 35.3277C67.4092 35.3346 68.2825 35.6954 68.9332 36.3339C69.584 36.9725 69.9612 37.8389 69.9853 38.7503C70.0094 39.6617 69.6785 40.5468 69.0624 41.2188L50.3593 64.6095C50.0377 64.9559 49.6495 65.2338 49.218 65.4268C48.7865 65.6197 48.3205 65.7237 47.848 65.7325C47.3754 65.7412 46.9059 65.6546 46.4675 65.4777C46.0292 65.3009 45.631 65.0375 45.2968 64.7032L32.8936 52.3001C32.5482 51.9782 32.2712 51.5901 32.0791 51.1589C31.8869 50.7276 31.7836 50.2621 31.7753 49.79C31.7669 49.318 31.8538 48.8491 32.0306 48.4113C32.2074 47.9736 32.4706 47.5759 32.8044 47.2421C33.1382 46.9082 33.5359 46.6451 33.9737 46.4683C34.4114 46.2914 34.8803 46.2046 35.3523 46.2129C35.8244 46.2213 36.2899 46.3246 36.7212 46.5167C37.1524 46.7089 37.5405 46.9859 37.8624 47.3313L47.678 57.1423L63.953 36.4001C63.9822 36.3639 64.0135 36.3295 64.0468 36.297ZM59.7343 60.3907L64.0468 64.7032C64.3809 65.0367 64.7788 65.2995 65.2167 65.476C65.6546 65.6524 66.1236 65.7388 66.5956 65.73C67.0676 65.7213 67.533 65.6176 67.9641 65.425C68.3952 65.2325 68.783 64.9551 69.1046 64.6095L87.8171 41.2188C88.1532 40.887 88.4191 40.4908 88.5987 40.0539C88.7783 39.617 88.868 39.1484 88.8625 38.6761C88.857 38.2037 88.7564 37.7373 88.5666 37.3048C88.3769 36.8722 88.1019 36.4823 87.7581 36.1583C87.4143 35.8344 87.0087 35.5831 86.5657 35.4193C86.1226 35.2556 85.651 35.1829 85.1792 35.2054C84.7074 35.228 84.2449 35.3454 83.8195 35.5507C83.3941 35.7559 83.0143 36.0448 82.703 36.4001L66.4233 57.1423L64.1499 54.8641L59.7296 60.3907H59.7343Z" fill="white"/>
</svg>
