<svg width="24" height="24" viewBox="0 0 24 24" fill="none" xmlns="http://www.w3.org/2000/svg">
<path d="M20.5714 7.71429H16.2857V3.42857C16.2857 3.04969 16.1352 2.68633 15.8673 2.41842C15.5994 2.15051 15.236 2 14.8571 2H3.42857C3.04969 2 2.68633 2.15051 2.41842 2.41842C2.15051 2.68633 2 3.04969 2 3.42857V14.8571C2 15.236 2.15051 15.5994 2.41842 15.8673C2.68633 16.1352 3.04969 16.2857 3.42857 16.2857H7.71429V20.5714C7.71429 20.9503 7.8648 21.3137 8.13271 21.5816C8.40061 21.8495 8.76398 22 9.14286 22H20.5714C20.9503 22 21.3137 21.8495 21.5816 21.5816C21.8495 21.3137 22 20.9503 22 20.5714V9.14286C22 8.76398 21.8495 8.40061 21.5816 8.13271C21.3137 7.8648 20.9503 7.71429 20.5714 7.71429Z" fill="#7B7B7B"/>
</svg>
