<svg width="17" height="17" viewBox="0 0 17 17" fill="none" xmlns="http://www.w3.org/2000/svg">
<path d="M14.1667 4.95833V3.54167C14.1667 2.76037 13.5314 2.125 12.7501 2.125H3.54175C2.37016 2.125 1.41675 3.07842 1.41675 4.25V12.75C1.41675 14.309 2.6875 14.875 3.54175 14.875H14.1667C14.948 14.875 15.5834 14.2396 15.5834 13.4583V6.375C15.5834 5.59371 14.948 4.95833 14.1667 4.95833ZM12.7501 11.3333H11.3334V8.5H12.7501V11.3333ZM3.54175 4.95833C3.35937 4.95017 3.18716 4.87198 3.06099 4.74004C2.93481 4.60809 2.86439 4.43256 2.86439 4.25C2.86439 4.06744 2.93481 3.89191 3.06099 3.75996C3.18716 3.62802 3.35937 3.54983 3.54175 3.54167H12.7501V4.95833H3.54175Z" fill="#374F82"/>
</svg>
